<svg xmlns="http://www.w3.org/2000/svg" viewBox="0 0 32.165 28.27">
  <defs>
    <style>
      .cls-1 {
        fill: #53575c;
        stroke: #262626;
      }
    </style>
  </defs>
  <path id="bars-solid" class="cls-1" d="M1.113,65.009H30.052A1.113,1.113,0,0,0,31.165,63.9V61.113A1.113,1.113,0,0,0,30.052,60H1.113A1.113,1.113,0,0,0,0,61.113V63.9A1.113,1.113,0,0,0,1.113,65.009Zm0,11.13H30.052a1.113,1.113,0,0,0,1.113-1.113V72.243a1.113,1.113,0,0,0-1.113-1.113H1.113A1.113,1.113,0,0,0,0,72.243v2.783A1.113,1.113,0,0,0,1.113,76.139Zm0,11.13H30.052a1.113,1.113,0,0,0,1.113-1.113V83.374a1.113,1.113,0,0,0-1.113-1.113H1.113A1.113,1.113,0,0,0,0,83.374v2.783A1.113,1.113,0,0,0,1.113,87.27Z" transform="translate(0.5 -59.5)"/>
</svg>
