<svg xmlns="http://www.w3.org/2000/svg" viewBox="0 0 29.552 29.519">
  <defs>
    <style>
      .cls-1 {
        fill: #53575c;
        stroke: #262626;
      }
    </style>
  </defs>
  <path id="cog_bordered" class="cls-1" d="M44.18,24.271l2.559,1.414a.678.678,0,0,1,.328.8,14.1,14.1,0,0,1-3.286,5.436.745.745,0,0,1-.891.13l-2.557-1.414a11.635,11.635,0,0,1-3.648,2.019v2.827a.7.7,0,0,1-.563.674,15.662,15.662,0,0,1-6.558,0A.7.7,0,0,1,29,35.487V32.66a11.635,11.635,0,0,1-3.648-2.019l-2.555,1.414a.745.745,0,0,1-.891-.13,14.1,14.1,0,0,1-3.283-5.436.679.679,0,0,1,.328-.8l2.559-1.414a10.653,10.653,0,0,1,0-4.039l-2.559-1.414a.678.678,0,0,1-.328-.8A14.1,14.1,0,0,1,21.9,12.578a.745.745,0,0,1,.891-.13l2.557,1.414A11.635,11.635,0,0,1,29,11.843V9.02a.7.7,0,0,1,.563-.674,15.662,15.662,0,0,1,6.558,0,.7.7,0,0,1,.565.674v2.827a11.635,11.635,0,0,1,3.648,2.019l2.557-1.414a.745.745,0,0,1,.891.13,14.1,14.1,0,0,1,3.283,5.436.679.679,0,0,1-.328.8l-2.559,1.414a10.654,10.654,0,0,1,0,4.039Zm-6.532-2.017a4.808,4.808,0,0,0-9.607,0,4.808,4.808,0,0,0,9.607,0Z" transform="translate(-18.068 -7.494)"/>
</svg>
