<svg xmlns="http://www.w3.org/2000/svg" viewBox="0 0 37.046 37.014">
  <defs>
    <style>
      .cls-1 {
        fill: #53575c;
        stroke: #262626;
      }
    </style>
  </defs>
  <path id="cog-solid" class="cls-1" d="M50.905,28.547l3.231,1.785a.856.856,0,0,1,.414,1.015A17.807,17.807,0,0,1,50.4,38.212a.941.941,0,0,1-1.125.164l-3.229-1.785a14.693,14.693,0,0,1-4.607,2.55v3.57a.881.881,0,0,1-.711.851,19.778,19.778,0,0,1-8.281,0,.882.882,0,0,1-.713-.851v-3.57a14.692,14.692,0,0,1-4.607-2.55L23.9,38.376a.941.941,0,0,1-1.125-.164,17.808,17.808,0,0,1-4.146-6.865.857.857,0,0,1,.414-1.015l3.231-1.785a13.453,13.453,0,0,1,0-5.1l-3.231-1.785a.856.856,0,0,1-.414-1.015,17.807,17.807,0,0,1,4.146-6.865.941.941,0,0,1,1.125-.164l3.229,1.785a14.693,14.693,0,0,1,4.607-2.55V9.288a.881.881,0,0,1,.711-.851,19.778,19.778,0,0,1,8.281,0,.882.882,0,0,1,.713.851v3.57a14.692,14.692,0,0,1,4.607,2.55l3.229-1.785a.941.941,0,0,1,1.125.164,17.808,17.808,0,0,1,4.146,6.865.857.857,0,0,1-.414,1.015l-3.231,1.785a13.454,13.454,0,0,1,0,5.1ZM42.657,26a6.071,6.071,0,0,0-12.131,0,6.071,6.071,0,0,0,12.131,0Z" transform="translate(-18.069 -7.492)"/>
</svg>
