<?xml version="1.0" encoding="UTF-8" standalone="no"?>
<!-- Created with Inkscape (http://www.inkscape.org/) -->

<svg
   xmlns:dc="http://purl.org/dc/elements/1.1/"
   xmlns:cc="http://creativecommons.org/ns#"
   xmlns:rdf="http://www.w3.org/1999/02/22-rdf-syntax-ns#"
   xmlns:svg="http://www.w3.org/2000/svg"
   xmlns="http://www.w3.org/2000/svg"
   xmlns:sodipodi="http://sodipodi.sourceforge.net/DTD/sodipodi-0.dtd"
   xmlns:inkscape="http://www.inkscape.org/namespaces/inkscape"
   width="210mm"
   height="297mm"
   viewBox="0 0 744.09448819 1052.3622047"
   id="svg2"
   version="1.1"
   inkscape:version="0.91 r13725"
   sodipodi:docname="devices.svg">
  <defs
     id="defs4" />
  <sodipodi:namedview
     id="base"
     pagecolor="#ffffff"
     bordercolor="#666666"
     borderopacity="1.0"
     inkscape:pageopacity="0.0"
     inkscape:pageshadow="2"
     inkscape:zoom="0.35"
     inkscape:cx="-553.57143"
     inkscape:cy="520"
     inkscape:document-units="px"
     inkscape:current-layer="layer1"
     showgrid="false"
     inkscape:window-width="1920"
     inkscape:window-height="984"
     inkscape:window-x="0"
     inkscape:window-y="0"
     inkscape:window-maximized="1" />
  <metadata
     id="metadata7">
    <rdf:RDF>
      <cc:Work
         rdf:about="">
        <dc:format>image/svg+xml</dc:format>
        <dc:type
           rdf:resource="http://purl.org/dc/dcmitype/StillImage" />
        <dc:title></dc:title>
      </cc:Work>
    </rdf:RDF>
  </metadata>
  <g
     inkscape:label="Layer 1"
     inkscape:groupmode="layer"
     id="layer1">
    <path
       id="path4207"
       d="m 645.71427,359.21939 -480,0 c -26.5,0 -48,21.5 -48,48 l 0,320 c 0,26.5 21.5,48 48,48 l 192,0 -16,48 -72,0 c -13.3,0 -24,10.7 -24,24 0,13.3 10.7,24 24,24 l 272,0 c 13.3,0 24,-10.7 24,-24 0,-13.3 -10.7,-24 -24,-24 l -72,0 -16,-48 192,0 c 26.5,0 48,-21.5 48,-48 l 0,-320 c 0,-26.5 -21.5,-48 -48,-48 z m -16,352 -448,0 0,-288 448,0 0,288 z"
       inkscape:connector-curvature="0"
       style="fill:currentColor;stroke:none;stroke-opacity:1" />
    <path
       id="path4196"
       d="m 314.85713,496.36226 -224.000001,0 c -26.5,0 -48,21.5 -48,48 l 0,416 c 0,26.5 21.5,48.00004 48,48.00004 l 224.000001,0 c 26.5,0 48,-21.50004 48,-48.00004 l 0,-416 c 0,-26.5 -21.5,-48 -48,-48 z m -112,480 c -17.7,0 -32,-14.3 -32,-32 0,-17.7 14.3,-32 32,-32 17.7,0 32,14.3 32,32 0,17.7 -14.3,32 -32,32 z m 112,-108 c 0,6.6 -5.4,12 -12,12 l -200,0 c -6.600001,0 -12.000001,-5.4 -12.000001,-12 l 0,-312 c 0,-6.6 5.4,-12 12.000001,-12 l 200,0 c 6.6,0 12,5.4 12,12 l 0,312 z"
       inkscape:connector-curvature="0"
       style="fill:currentColor" />
  </g>
</svg>
