<svg xmlns="http://www.w3.org/2000/svg" viewBox="0 0 37.576 37">
  <defs>
    <style>
      .cls-1 {
        fill: #53575c;
        stroke: #262626;
      }
    </style>
  </defs>
  <g id="devices" transform="translate(-39.5 -358.719)">
    <path id="path4196" class="cls-1" d="M55.218,490.648H42.686A2.686,2.686,0,0,0,40,493.334v23.275a2.686,2.686,0,0,0,2.686,2.686H55.218a2.686,2.686,0,0,0,2.686-2.686V493.334A2.686,2.686,0,0,0,55.218,490.648ZM48.952,517.5a1.79,1.79,0,1,1,1.79-1.79A1.788,1.788,0,0,1,48.952,517.5Zm6.266-6.043a.673.673,0,0,1-.671.671H43.357a.673.673,0,0,1-.671-.671V494a.673.673,0,0,1,.671-.671h11.19a.673.673,0,0,1,.671.671Z" transform="translate(0 -124.075)"/>
    <path id="path4207" class="cls-1" d="M147.256,359.219H120.4a2.686,2.686,0,0,0-2.686,2.686v17.9a2.686,2.686,0,0,0,2.686,2.686h10.742l-.9,2.686h-4.028a1.343,1.343,0,1,0,0,2.686h15.218a1.343,1.343,0,0,0,0-2.686h-4.028l-.9-2.686h10.742a2.686,2.686,0,0,0,2.686-2.686V361.9A2.686,2.686,0,0,0,147.256,359.219Zm-.9,19.694H121.3V362.8h25.066Z" transform="translate(-73.366)"/>
  </g>
</svg>
