<svg xmlns="http://www.w3.org/2000/svg" viewBox="0 0 31 31">
  <defs>
    <style>
      .cls-1 {
        fill: #53575c;
        stroke: #262626;
      }
    </style>
  </defs>
  <path id="key-solid" class="cls-1" d="M30,10.313A10.318,10.318,0,0,1,17.764,20.445l-1.407,1.583a1.406,1.406,0,0,1-1.051.472H13.125v2.344a1.406,1.406,0,0,1-1.406,1.406H9.375v2.344A1.406,1.406,0,0,1,7.969,30H1.406A1.406,1.406,0,0,1,0,28.594V24.02a1.407,1.407,0,0,1,.412-.994l9.481-9.481A10.313,10.313,0,1,1,30,10.313ZM19.688,7.5A2.813,2.813,0,1,0,22.5,4.688,2.812,2.812,0,0,0,19.688,7.5Z" transform="translate(0.5 0.5)"/>
</svg>
